<svg xmlns="http://www.w3.org/2000/svg" viewBox="0 0 860 372" width="860" height="372" role="img" aria-labelledby="title desc">
  <title id="title">One schedule, three pass rates</title>
  <desc id="desc">Twelve VBlanks after a mission begins, left to right, in three rows: a pass every VBlank, every second VBlank and every third. At the top, common to all three rows, the VBlank server takes an input sample at VBlanks 1, 5 and 9, every fourth. In each row a pass begins at its VBlank and runs a logic tick for each byte waiting when it has drawn: with one VBlank a pass, twelve passes and ticks after the passes of VBlanks 1, 5 and 9; with two, six passes and ticks after the passes of VBlanks 1, 5 and 9; with three, four passes and ticks after the passes of VBlanks 1, 7 and 10. Under each row the schedule as a run records it, VBlank by VBlank: V for the VBlank, P for a pass begun after it, T for a tick. The middle row reads V P T, V, V P, V, V P T and so on. Every row has the same three ticks on the same three bytes; what runs once a pass runs twelve, six or four times.</desc>
  <style>
    /* The book's colours (stylesheets/book.css), each an entry of one of the game's palettes. */
    .pass   { fill: #CCCCDD; /* wingspalette 30 */ }
    .tick   { fill: #FFBB00; /* wingstitle 25 */ }
    .ink    { fill: #111122; /* wingspalette 6 */ }
    .light  { fill: #EEEEEE; /* wingstitle 31 */ }
    .record { fill: #AAAABB; /* wingspalette 29 */ }
    .vblank { stroke: #666677; /* wingspalette 27 */ stroke-width: 1; stroke-dasharray: 3 3; }
    text { font-family: system-ui, -apple-system, "Segoe UI", Roboto, Arial, sans-serif; font-size: 14px; }
    .mono  { font-family: ui-monospace, Menlo, Consolas, "Liberation Mono", monospace; font-size: 12px; }
    .label { font-size: 15px; font-weight: 700; }
    .small { font-size: 12px; }
  </style>

  <!-- The VBlanks, 52 units apart: VBlank k at x = 210 + 52 (k - 1) -->
  <text class="light label" x="10" y="30">VBlank</text>
  <line class="vblank" x1="210" y1="38" x2="210" y2="320"/>
  <line class="vblank" x1="262" y1="38" x2="262" y2="320"/>
  <line class="vblank" x1="314" y1="38" x2="314" y2="320"/>
  <line class="vblank" x1="366" y1="38" x2="366" y2="320"/>
  <line class="vblank" x1="418" y1="38" x2="418" y2="320"/>
  <line class="vblank" x1="470" y1="38" x2="470" y2="320"/>
  <line class="vblank" x1="522" y1="38" x2="522" y2="320"/>
  <line class="vblank" x1="574" y1="38" x2="574" y2="320"/>
  <line class="vblank" x1="626" y1="38" x2="626" y2="320"/>
  <line class="vblank" x1="678" y1="38" x2="678" y2="320"/>
  <line class="vblank" x1="730" y1="38" x2="730" y2="320"/>
  <line class="vblank" x1="782" y1="38" x2="782" y2="320"/>
  <text class="light" x="210" y="30" text-anchor="middle">1</text>
  <text class="light" x="262" y="30" text-anchor="middle">2</text>
  <text class="light" x="314" y="30" text-anchor="middle">3</text>
  <text class="light" x="366" y="30" text-anchor="middle">4</text>
  <text class="light" x="418" y="30" text-anchor="middle">5</text>
  <text class="light" x="470" y="30" text-anchor="middle">6</text>
  <text class="light" x="522" y="30" text-anchor="middle">7</text>
  <text class="light" x="574" y="30" text-anchor="middle">8</text>
  <text class="light" x="626" y="30" text-anchor="middle">9</text>
  <text class="light" x="678" y="30" text-anchor="middle">10</text>
  <text class="light" x="730" y="30" text-anchor="middle">11</text>
  <text class="light" x="782" y="30" text-anchor="middle">12</text>

  <!-- The input samples, every fourth VBlank, the same in every row -->
  <text class="light" x="10" y="62">input sample</text>
  <text class="light small" x="10" y="78">into the queue</text>
  <path class="tick" d="M202 52 L218 52 L210 68 Z"/>
  <path class="tick" d="M410 52 L426 52 L418 68 Z"/>
  <path class="tick" d="M618 52 L634 52 L626 68 Z"/>

  <!-- 1 VBlank a pass: passes from VBlanks 1, 2, 3, 4, 5, 6, 7, 8, 9, 10, 11, 12, ticks after 1, 5, 9 -->
  <text class="light label" x="10" y="116">1 VBlank a pass</text>
  <text class="light small" x="10" y="134">12 passes, 3 ticks</text>
  <rect class="pass" x="213" y="100" width="46" height="30" rx="3"/>
  <text class="ink" x="219" y="120">P</text>
  <rect class="tick" x="237" y="104" width="18" height="22" rx="2"/>
  <text class="ink" x="246" y="120" text-anchor="middle">T</text>
  <rect class="pass" x="265" y="100" width="46" height="30" rx="3"/>
  <text class="ink" x="271" y="120">P</text>
  <rect class="pass" x="317" y="100" width="46" height="30" rx="3"/>
  <text class="ink" x="323" y="120">P</text>
  <rect class="pass" x="369" y="100" width="46" height="30" rx="3"/>
  <text class="ink" x="375" y="120">P</text>
  <rect class="pass" x="421" y="100" width="46" height="30" rx="3"/>
  <text class="ink" x="427" y="120">P</text>
  <rect class="tick" x="445" y="104" width="18" height="22" rx="2"/>
  <text class="ink" x="454" y="120" text-anchor="middle">T</text>
  <rect class="pass" x="473" y="100" width="46" height="30" rx="3"/>
  <text class="ink" x="479" y="120">P</text>
  <rect class="pass" x="525" y="100" width="46" height="30" rx="3"/>
  <text class="ink" x="531" y="120">P</text>
  <rect class="pass" x="577" y="100" width="46" height="30" rx="3"/>
  <text class="ink" x="583" y="120">P</text>
  <rect class="pass" x="629" y="100" width="46" height="30" rx="3"/>
  <text class="ink" x="635" y="120">P</text>
  <rect class="tick" x="653" y="104" width="18" height="22" rx="2"/>
  <text class="ink" x="662" y="120" text-anchor="middle">T</text>
  <rect class="pass" x="681" y="100" width="46" height="30" rx="3"/>
  <text class="ink" x="687" y="120">P</text>
  <rect class="pass" x="733" y="100" width="46" height="30" rx="3"/>
  <text class="ink" x="739" y="120">P</text>
  <rect class="pass" x="785" y="100" width="46" height="30" rx="3"/>
  <text class="ink" x="791" y="120">P</text>
  <text class="record mono" x="234" y="150" text-anchor="middle">V P T</text>
  <text class="record mono" x="286" y="150" text-anchor="middle">V P</text>
  <text class="record mono" x="338" y="150" text-anchor="middle">V P</text>
  <text class="record mono" x="390" y="150" text-anchor="middle">V P</text>
  <text class="record mono" x="442" y="150" text-anchor="middle">V P T</text>
  <text class="record mono" x="494" y="150" text-anchor="middle">V P</text>
  <text class="record mono" x="546" y="150" text-anchor="middle">V P</text>
  <text class="record mono" x="598" y="150" text-anchor="middle">V P</text>
  <text class="record mono" x="650" y="150" text-anchor="middle">V P T</text>
  <text class="record mono" x="702" y="150" text-anchor="middle">V P</text>
  <text class="record mono" x="754" y="150" text-anchor="middle">V P</text>
  <text class="record mono" x="806" y="150" text-anchor="middle">V P</text>

  <!-- 2 VBlanks a pass: passes from VBlanks 1, 3, 5, 7, 9, 11, ticks after 1, 5, 9 -->
  <text class="light label" x="10" y="196">2 VBlanks a pass</text>
  <text class="light small" x="10" y="214">6 passes, 3 ticks</text>
  <rect class="pass" x="213" y="180" width="98" height="30" rx="3"/>
  <text class="ink" x="219" y="200">P</text>
  <rect class="tick" x="289" y="184" width="18" height="22" rx="2"/>
  <text class="ink" x="298" y="200" text-anchor="middle">T</text>
  <rect class="pass" x="317" y="180" width="98" height="30" rx="3"/>
  <text class="ink" x="323" y="200">P</text>
  <rect class="pass" x="421" y="180" width="98" height="30" rx="3"/>
  <text class="ink" x="427" y="200">P</text>
  <rect class="tick" x="497" y="184" width="18" height="22" rx="2"/>
  <text class="ink" x="506" y="200" text-anchor="middle">T</text>
  <rect class="pass" x="525" y="180" width="98" height="30" rx="3"/>
  <text class="ink" x="531" y="200">P</text>
  <rect class="pass" x="629" y="180" width="98" height="30" rx="3"/>
  <text class="ink" x="635" y="200">P</text>
  <rect class="tick" x="705" y="184" width="18" height="22" rx="2"/>
  <text class="ink" x="714" y="200" text-anchor="middle">T</text>
  <rect class="pass" x="733" y="180" width="98" height="30" rx="3"/>
  <text class="ink" x="739" y="200">P</text>
  <text class="record mono" x="234" y="230" text-anchor="middle">V P T</text>
  <text class="record mono" x="286" y="230" text-anchor="middle">V</text>
  <text class="record mono" x="338" y="230" text-anchor="middle">V P</text>
  <text class="record mono" x="390" y="230" text-anchor="middle">V</text>
  <text class="record mono" x="442" y="230" text-anchor="middle">V P T</text>
  <text class="record mono" x="494" y="230" text-anchor="middle">V</text>
  <text class="record mono" x="546" y="230" text-anchor="middle">V P</text>
  <text class="record mono" x="598" y="230" text-anchor="middle">V</text>
  <text class="record mono" x="650" y="230" text-anchor="middle">V P T</text>
  <text class="record mono" x="702" y="230" text-anchor="middle">V</text>
  <text class="record mono" x="754" y="230" text-anchor="middle">V P</text>
  <text class="record mono" x="806" y="230" text-anchor="middle">V</text>

  <!-- 3 VBlanks a pass: passes from VBlanks 1, 4, 7, 10, ticks after 1, 7, 10 -->
  <text class="light label" x="10" y="276">3 VBlanks a pass</text>
  <text class="light small" x="10" y="294">4 passes, 3 ticks</text>
  <rect class="pass" x="213" y="260" width="150" height="30" rx="3"/>
  <text class="ink" x="219" y="280">P</text>
  <rect class="tick" x="341" y="264" width="18" height="22" rx="2"/>
  <text class="ink" x="350" y="280" text-anchor="middle">T</text>
  <rect class="pass" x="369" y="260" width="150" height="30" rx="3"/>
  <text class="ink" x="375" y="280">P</text>
  <rect class="pass" x="525" y="260" width="150" height="30" rx="3"/>
  <text class="ink" x="531" y="280">P</text>
  <rect class="tick" x="653" y="264" width="18" height="22" rx="2"/>
  <text class="ink" x="662" y="280" text-anchor="middle">T</text>
  <rect class="pass" x="681" y="260" width="150" height="30" rx="3"/>
  <text class="ink" x="687" y="280">P</text>
  <rect class="tick" x="809" y="264" width="18" height="22" rx="2"/>
  <text class="ink" x="818" y="280" text-anchor="middle">T</text>
  <text class="record mono" x="234" y="310" text-anchor="middle">V P T</text>
  <text class="record mono" x="286" y="310" text-anchor="middle">V</text>
  <text class="record mono" x="338" y="310" text-anchor="middle">V</text>
  <text class="record mono" x="390" y="310" text-anchor="middle">V P</text>
  <text class="record mono" x="442" y="310" text-anchor="middle">V</text>
  <text class="record mono" x="494" y="310" text-anchor="middle">V</text>
  <text class="record mono" x="546" y="310" text-anchor="middle">V P T</text>
  <text class="record mono" x="598" y="310" text-anchor="middle">V</text>
  <text class="record mono" x="650" y="310" text-anchor="middle">V</text>
  <text class="record mono" x="702" y="310" text-anchor="middle">V P T</text>
  <text class="record mono" x="754" y="310" text-anchor="middle">V</text>
  <text class="record mono" x="806" y="310" text-anchor="middle">V</text>

  <text class="light" x="10" y="346">The same three ticks take the same three bytes at every rate; what runs once a pass runs 12, 6 or 4 times.</text>
  <text class="light small" x="10" y="364">Under each row the schedule a run records: V a VBlank, P a pass begun after it, T a logic tick.</text>
</svg>
